<svg width="18" height="18" viewBox="0 0 18 18" fill="none" xmlns="http://www.w3.org/2000/svg">
<g clip-path="url(#clip0_15_1454)">
<g clip-path="url(#clip1_15_1454)">
<path d="M10.374 12.4259C10.5289 12.4971 10.7034 12.5133 10.8688 12.472C11.0341 12.4307 11.1805 12.3343 11.2838 12.1987L11.55 11.8499C11.6897 11.6636 11.8709 11.5124 12.0792 11.4083C12.2875 11.3041 12.5171 11.2499 12.75 11.2499H15C15.3978 11.2499 15.7794 11.408 16.0607 11.6893C16.342 11.9706 16.5 12.3521 16.5 12.7499V14.9999C16.5 15.3977 16.342 15.7793 16.0607 16.0606C15.7794 16.3419 15.3978 16.4999 15 16.4999C11.4196 16.4999 7.98581 15.0776 5.45407 12.5459C2.92233 10.0141 1.50001 6.58034 1.50001 2.99992C1.50001 2.60209 1.65805 2.22056 1.93935 1.93926C2.22065 1.65795 2.60219 1.49992 3.00001 1.49992H5.25001C5.64784 1.49992 6.02937 1.65795 6.31067 1.93926C6.59198 2.22056 6.75001 2.60209 6.75001 2.99992V5.24992C6.75001 5.48278 6.69579 5.71245 6.59165 5.92074C6.48751 6.12902 6.3363 6.3102 6.15001 6.44992L5.79901 6.71317C5.66132 6.8183 5.56428 6.96786 5.52435 7.13643C5.48443 7.305 5.5041 7.4822 5.58001 7.63792C6.60502 9.71982 8.29083 11.4035 10.374 12.4259Z" stroke="#0C1B2E" stroke-width="1.45833" stroke-linecap="round" stroke-linejoin="round"/>
</g>
</g>
<defs>
<clipPath id="clip0_15_1454">
<rect width="17.5" height="17.5" fill="white" transform="scale(1.02857)"/>
</clipPath>
<clipPath id="clip1_15_1454">
<rect width="17.5" height="17.5" fill="white" transform="scale(1.02857)"/>
</clipPath>
</defs>
</svg>
