<svg width="18" height="18" viewBox="0 0 18 18" fill="none" xmlns="http://www.w3.org/2000/svg">
<g clip-path="url(#clip0_15_1488)">
<path d="M15 7.50017C15 11.2449 10.8457 15.1449 9.45074 16.3494C9.32078 16.4471 9.16259 16.5 8.99999 16.5C8.83739 16.5 8.6792 16.4471 8.54924 16.3494C7.15424 15.1449 2.99999 11.2449 2.99999 7.50017C2.99999 5.90887 3.63213 4.38275 4.75735 3.25753C5.88257 2.13231 7.40869 1.50017 8.99999 1.50017C10.5913 1.50017 12.1174 2.13231 13.2426 3.25753C14.3678 4.38275 15 5.90887 15 7.50017Z" stroke="#003D82" stroke-width="1.45833" stroke-linecap="round" stroke-linejoin="round"/>
<path d="M9 9.74983C10.2426 9.74983 11.25 8.74247 11.25 7.49983C11.25 6.25719 10.2426 5.24983 9 5.24983C7.75736 5.24983 6.75 6.25719 6.75 7.49983C6.75 8.74247 7.75736 9.74983 9 9.74983Z" stroke="#003D82" stroke-width="1.45833" stroke-linecap="round" stroke-linejoin="round"/>
</g>
<defs>
<clipPath id="clip0_15_1488">
<rect width="17.5" height="17.5" fill="white" transform="scale(1.02857)"/>
</clipPath>
</defs>
</svg>
