<svg preserveAspectRatio="none" width="100%" height="100%" overflow="visible" style="display: block;" viewBox="0 0 17.5 17.5" fill="none" xmlns="http://www.w3.org/2000/svg">
<g id="SVG">
<path id="Vector" d="M11.6667 5.83333C12.827 5.83333 13.9398 6.29427 14.7603 7.11474C15.5807 7.93521 16.0417 9.04801 16.0417 10.2083V15.3125H13.125V10.2083C13.125 9.82156 12.9714 9.45063 12.6979 9.17714C12.4244 8.90365 12.0534 8.75 11.6667 8.75C11.2799 8.75 10.909 8.90365 10.6355 9.17714C10.362 9.45063 10.2083 9.82156 10.2083 10.2083V15.3125H7.29167V10.2083C7.29167 9.04801 7.7526 7.93521 8.57307 7.11474C9.39355 6.29427 10.5063 5.83333 11.6667 5.83333Z" stroke="var(--stroke-0, #D1D5DC)" stroke-width="1.45833" stroke-linecap="round" stroke-linejoin="round"/>
<path id="Vector_2" d="M4.375 6.5625H1.45833V15.3125H4.375V6.5625Z" stroke="var(--stroke-0, #D1D5DC)" stroke-width="1.45833" stroke-linecap="round" stroke-linejoin="round"/>
<path id="Vector_3" d="M2.91667 4.375C3.72208 4.375 4.375 3.72208 4.375 2.91667C4.375 2.11125 3.72208 1.45833 2.91667 1.45833C2.11125 1.45833 1.45833 2.11125 1.45833 2.91667C1.45833 3.72208 2.11125 4.375 2.91667 4.375Z" stroke="var(--stroke-0, #D1D5DC)" stroke-width="1.45833" stroke-linecap="round" stroke-linejoin="round"/>
</g>
</svg>
