<svg preserveAspectRatio="none" width="100%" height="100%" overflow="visible" style="display: block;" viewBox="0 0 17.5 17.5" fill="none" xmlns="http://www.w3.org/2000/svg">
<g id="SVG">
<path id="Vector" d="M12.3958 1.45833H5.10417C3.09063 1.45833 1.45833 3.09063 1.45833 5.10417V12.3958C1.45833 14.4094 3.09063 16.0417 5.10417 16.0417H12.3958C14.4094 16.0417 16.0417 14.4094 16.0417 12.3958V5.10417C16.0417 3.09063 14.4094 1.45833 12.3958 1.45833Z" stroke="var(--stroke-0, #D1D5DC)" stroke-width="1.45833" stroke-linecap="round" stroke-linejoin="round"/>
<path id="Vector_2" d="M11.6667 8.29063C11.7567 8.89747 11.653 9.51724 11.3704 10.0618C11.0879 10.6063 10.6408 11.0479 10.0929 11.3237C9.54487 11.5995 8.92387 11.6955 8.31818 11.5981C7.71249 11.5006 7.15295 11.2146 6.71915 10.7808C6.28536 10.347 5.99939 9.78751 5.90192 9.18182C5.80446 8.57613 5.90046 7.95513 6.17628 7.40715C6.45209 6.85916 6.89368 6.4121 7.43822 6.12955C7.98276 5.847 8.60253 5.74335 9.20938 5.83333C9.82838 5.92512 10.4015 6.21357 10.8439 6.65606C11.2864 7.09855 11.5749 7.67162 11.6667 8.29063Z" stroke="var(--stroke-0, #D1D5DC)" stroke-width="1.45833" stroke-linecap="round" stroke-linejoin="round"/>
<path id="Vector_3" d="M12.7604 4.73958H12.7677" stroke="var(--stroke-0, #D1D5DC)" stroke-width="1.45833" stroke-linecap="round" stroke-linejoin="round"/>
</g>
</svg>
