<svg width="14" height="14" viewBox="0 0 14 14" fill="none" xmlns="http://www.w3.org/2000/svg">
<path d="M8.068 9.666a.583.583 0 0 0 .385-.041.583.583 0 0 0 .265-.224l.207-.311a.875.875 0 0 1 .265-.258.875.875 0 0 1 .352-.107H11.083a.875.875 0 0 1 .875.875v1.75a.875.875 0 0 1-.875.875C7.659 12.225 4.988 11.17 3.02 9.201 1.052 7.234 0 4.563 0 1.167A.875.875 0 0 1 .875.292h1.75a.875.875 0 0 1 .875.875v1.75a.875.875 0 0 1-.358.7l-.263.197a.583.583 0 0 0-.189.32.583.583 0 0 0 .044.373C3.803 5.645 5.136 6.975 8.068 9.666Z" stroke="#d1d5dc" stroke-width="1.05" stroke-linecap="round" stroke-linejoin="round"/>
</svg>
