<svg preserveAspectRatio="none" width="100%" height="100%" overflow="visible" style="display: block;" viewBox="0 0 14 14" fill="none" xmlns="http://www.w3.org/2000/svg">
<g id="SVG" clip-path="url(#clip0_0_4)">
<path id="Vector" d="M12.8333 9.87V11.62C12.834 11.7825 12.8007 11.9433 12.7356 12.0921C12.6705 12.241 12.5751 12.3746 12.4554 12.4844C12.3357 12.5942 12.1943 12.6779 12.0404 12.7299C11.8865 12.782 11.7235 12.8013 11.5617 12.7867C9.76665 12.5916 8.04242 11.9783 6.5275 10.9958C4.83794 10.0369 3.42212 8.66127 2.415 7C1.42915 5.4782 0.815642 3.74558 0.624167 1.9425C0.596138 1.77497 0.605032 1.60333 0.650225 1.43959C0.695419 1.27585 0.775823 1.12395 0.885818 0.994513C0.995814 0.865074 1.13275 0.761215 1.28705 0.690194C1.44135 0.619174 1.6093 0.582704 1.77917 0.583334H3.52917C3.81226 0.580547 4.08671 0.680796 4.30136 0.865394C4.51601 1.04999 4.65621 1.30634 4.69583 1.58667C4.76992 2.14667 4.90642 2.69675 5.10417 3.22583C5.18265 3.43462 5.19964 3.66153 5.15311 3.87968C5.10659 4.09783 4.9985 4.29806 4.84167 4.45667L4.13583 5.1975C4.96624 6.6579 6.17543 7.86709 7.63583 8.6975L8.37667 7.95667C8.53527 7.79983 8.73551 7.69175 8.95365 7.64522C9.1718 7.5987 9.39871 7.61568 9.6075 7.69417C10.1366 7.89192 10.6867 8.02842 11.2467 8.1025C11.5384 8.14312 11.804 8.29258 11.9901 8.52088C12.1762 8.74917 12.269 9.03941 12.25 9.33333L12.8333 9.87Z" stroke="var(--stroke-0, white)" stroke-width="1.45833" stroke-linecap="round" stroke-linejoin="round"/>
</g>
<defs>
<clipPath id="clip0_0_4">
<rect width="14" height="14" fill="white"/>
</clipPath>
</defs>
</svg>
