<svg preserveAspectRatio="none" width="100%" height="100%" overflow="visible" style="display: block;" viewBox="0 0 16 16" fill="none" xmlns="http://www.w3.org/2000/svg">
<g id="SVG" clip-path="url(#clip0_0_6)">
<path id="Vector" d="M14.6667 11.28V13.28C14.6674 13.4657 14.6294 13.6494 14.555 13.8196C14.4806 13.9897 14.3715 14.1424 14.2347 14.2679C14.0979 14.3934 13.9364 14.489 13.7605 14.5485C13.5846 14.608 13.3982 14.63 13.2133 14.6133C11.1619 14.3904 9.19133 13.6894 7.46 12.5667C5.52907 11.4708 3.911 9.8986 2.76 8C1.63332 6.2608 0.932162 4.28066 0.713333 2.22C0.6813 2.02853 0.691464 1.83238 0.743114 1.64525C0.794764 1.45811 0.886654 1.28452 1.01236 1.13659C1.13807 0.988656 1.29457 0.86996 1.47091 0.788793C1.64726 0.707626 1.83921 0.665947 2.03333 0.666666H4.03333C4.35687 0.663482 4.67053 0.778052 4.91584 0.989022C5.16115 1.19999 5.32138 1.49296 5.36667 1.81333C5.45133 2.45333 5.60733 3.082 5.83333 3.68667C5.92303 3.92528 5.94244 4.18461 5.88927 4.43392C5.8361 4.68323 5.71258 4.91207 5.53333 5.09333L4.72667 5.94C5.6757 7.60903 7.05764 8.99096 8.72667 9.94L9.57333 9.09333C9.75459 8.91409 9.98344 8.79057 10.2327 8.7374C10.4821 8.68423 10.7414 8.70364 10.98 8.79333C11.5847 9.01933 12.2133 9.17533 12.8533 9.26C13.1867 9.30642 13.4902 9.47723 13.7029 9.73814C13.9156 9.99905 14.0217 10.3308 14 10.6667L14.6667 11.28Z" stroke="var(--stroke-0, white)" stroke-width="1.66667" stroke-linecap="round" stroke-linejoin="round"/>
</g>
<defs>
<clipPath id="clip0_0_6">
<rect width="16" height="16" fill="white"/>
</clipPath>
</defs>
</svg>
