<svg preserveAspectRatio="none" width="100%" height="100%" overflow="visible" style="display: block;" viewBox="0 0 10.5 23.3333" fill="none" xmlns="http://www.w3.org/2000/svg">
<path id="Vector" d="M3.5 1.16667C2.88116 1.16667 2.28767 1.4125 1.85008 1.85008C1.4125 2.28767 1.16667 2.88116 1.16667 3.5V10.5C1.16667 11.1188 1.4125 11.7123 1.85008 12.1499C2.28767 12.5875 2.88116 12.8333 3.5 12.8333C3.80942 12.8333 4.10617 12.9562 4.32496 13.175C4.54375 13.3938 4.66667 13.6906 4.66667 14V15.1667C4.66667 15.7855 4.42083 16.379 3.98325 16.8166C3.54566 17.2542 2.95217 17.5 2.33333 17.5C2.02391 17.5 1.72717 17.6229 1.50838 17.8417C1.28958 18.0605 1.16667 18.3572 1.16667 18.6667V21C1.16667 21.3094 1.28958 21.6062 1.50838 21.825C1.72717 22.0438 2.02391 22.1667 2.33333 22.1667C4.18985 22.1667 5.97033 21.4292 7.28308 20.1164C8.59583 18.8037 9.33333 17.0232 9.33333 15.1667V3.5C9.33333 2.88116 9.0875 2.28767 8.64992 1.85008C8.21233 1.4125 7.61884 1.16667 7 1.16667H3.5Z" stroke="var(--stroke-0, #5CB0E3)" stroke-width="2.33333" stroke-linecap="round" stroke-linejoin="round"/>
</svg>
