<svg preserveAspectRatio="none" width="100%" height="100%" overflow="visible" style="display: block;" viewBox="0 0 17.5 17.5" fill="none" xmlns="http://www.w3.org/2000/svg">
<g id="SVG">
<path id="Vector" d="M8.40365 1.67344C8.4356 1.60888 8.48496 1.55453 8.54616 1.51654C8.60736 1.47854 8.67796 1.45841 8.75 1.45841C8.82204 1.45841 8.89264 1.47854 8.95384 1.51654C9.01504 1.55453 9.0644 1.60888 9.09635 1.67344L10.7807 5.08521C10.8917 5.30977 11.0555 5.50405 11.2581 5.65137C11.4606 5.7987 11.6959 5.89467 11.9437 5.93104L15.7106 6.48229C15.782 6.49263 15.8491 6.52274 15.9042 6.56921C15.9594 6.61568 16.0004 6.67665 16.0227 6.74523C16.045 6.81382 16.0477 6.88728 16.0304 6.9573C16.0132 7.02732 15.9766 7.09111 15.925 7.14146L13.2008 9.79417C13.0212 9.96924 12.8868 10.1854 12.8092 10.4239C12.7315 10.6624 12.7131 10.9163 12.7553 11.1635L13.3984 14.9115C13.411 14.9828 13.4033 15.0562 13.3762 15.1234C13.3491 15.1906 13.3036 15.2488 13.245 15.2914C13.1864 15.3339 13.117 15.3592 13.0447 15.3642C12.9724 15.3692 12.9002 15.3538 12.8363 15.3198L9.46896 13.5494C9.24709 13.4329 9.00024 13.372 8.74964 13.372C8.49904 13.372 8.25219 13.4329 8.03031 13.5494L4.66375 15.3198C4.59982 15.3536 4.52769 15.3689 4.45554 15.3637C4.38339 15.3586 4.31413 15.3333 4.25563 15.2908C4.19714 15.2482 4.15175 15.1901 4.12465 15.1231C4.09754 15.056 4.08979 14.9827 4.10229 14.9115L4.74469 11.1643C4.78712 10.9169 4.76874 10.6629 4.69112 10.4242C4.6135 10.1855 4.47899 9.96928 4.29917 9.79417L1.575 7.14219C1.52293 7.0919 1.48604 7.028 1.46851 6.95776C1.45099 6.88753 1.45355 6.81378 1.47589 6.74493C1.49823 6.67608 1.53947 6.61488 1.59489 6.56832C1.65031 6.52176 1.7177 6.4917 1.78937 6.48156L5.55552 5.93104C5.80362 5.89495 6.03924 5.7991 6.24209 5.65176C6.44494 5.50442 6.60895 5.30999 6.72 5.08521L8.40365 1.67344Z" fill="var(--fill-0, #FCC800)" stroke="var(--stroke-2, #FCC800)" stroke-width="1.45833" stroke-linecap="round" stroke-linejoin="round"/>
</g>
</svg>
