<svg preserveAspectRatio="none" width="100%" height="100%" overflow="visible" style="display: block;" viewBox="0 0 28 28" fill="none" xmlns="http://www.w3.org/2000/svg">
<g id="SVG">
<path id="Vector" d="M18.0565 15.0383L19.824 24.9853C19.8438 25.1025 19.8274 25.2228 19.7769 25.3304C19.7264 25.4379 19.6443 25.5275 19.5416 25.5871C19.4388 25.6467 19.3203 25.6735 19.2019 25.664C19.0835 25.6544 18.9709 25.609 18.879 25.5337L14.7023 22.3988C14.5007 22.2482 14.2558 22.1668 14.0041 22.1668C13.7524 22.1668 13.5075 22.2482 13.3058 22.3988L9.12217 25.5325C9.03037 25.6077 8.91784 25.6531 8.79958 25.6626C8.68132 25.6722 8.56295 25.6455 8.46027 25.586C8.3576 25.5266 8.27549 25.4372 8.22491 25.3299C8.17432 25.2226 8.15767 25.1024 8.17717 24.9853L9.9435 15.0383" stroke="var(--stroke-0, #0F1D24)" stroke-width="2.33333" stroke-linecap="round" stroke-linejoin="round"/>
<path id="Vector_2" d="M14 16.3333C17.866 16.3333 21 13.1993 21 9.33333C21 5.46734 17.866 2.33333 14 2.33333C10.134 2.33333 7 5.46734 7 9.33333C7 13.1993 10.134 16.3333 14 16.3333Z" stroke="var(--stroke-0, #0F1D24)" stroke-width="2.33333" stroke-linecap="round" stroke-linejoin="round"/>
</g>
</svg>
