<svg preserveAspectRatio="none" width="100%" height="100%" overflow="visible" style="display: block;" viewBox="0 0 28 28" fill="none" xmlns="http://www.w3.org/2000/svg">
<g id="SVG">
<path id="Vector" d="M18.6667 24.5V22.1667C18.6667 20.929 18.175 19.742 17.2998 18.8668C16.4247 17.9917 15.2377 17.5 14 17.5H7C5.76232 17.5 4.57534 17.9917 3.70017 18.8668C2.825 19.742 2.33333 20.929 2.33333 22.1667V24.5" stroke="var(--stroke-0, #0F1D24)" stroke-width="2.33333" stroke-linecap="round" stroke-linejoin="round"/>
<path id="Vector_2" d="M18.6667 3.64933C19.6674 3.90877 20.5536 4.49314 21.1863 5.31074C21.819 6.12834 22.1622 7.13287 22.1622 8.16667C22.1622 9.20046 21.819 10.205 21.1863 11.0226C20.5536 11.8402 19.6674 12.4246 18.6667 12.684" stroke="var(--stroke-0, #0F1D24)" stroke-width="2.33333" stroke-linecap="round" stroke-linejoin="round"/>
<path id="Vector_3" d="M25.6667 24.5V22.1667C25.6659 21.1327 25.3217 20.1282 24.6883 19.311C24.0548 18.4938 23.1678 17.9102 22.1667 17.6517" stroke="var(--stroke-0, #0F1D24)" stroke-width="2.33333" stroke-linecap="round" stroke-linejoin="round"/>
<path id="Vector_4" d="M10.5 12.8333C13.0773 12.8333 15.1667 10.744 15.1667 8.16667C15.1667 5.58934 13.0773 3.5 10.5 3.5C7.92267 3.5 5.83333 5.58934 5.83333 8.16667C5.83333 10.744 7.92267 12.8333 10.5 12.8333Z" stroke="var(--stroke-0, #0F1D24)" stroke-width="2.33333" stroke-linecap="round" stroke-linejoin="round"/>
</g>
</svg>
