<svg preserveAspectRatio="none" width="100%" height="100%" overflow="visible" style="display: block;" viewBox="0 0 28 28" fill="none" xmlns="http://www.w3.org/2000/svg">
<g id="SVG">
<path id="Vector" d="M23.3333 11.6667C23.3333 17.4918 16.8712 23.5585 14.7012 25.4322C14.499 25.5842 14.2529 25.6664 14 25.6664C13.7471 25.6664 13.501 25.5842 13.2988 25.4322C11.1288 23.5585 4.66667 17.4918 4.66667 11.6667C4.66667 9.19131 5.65 6.81734 7.40034 5.067C9.15068 3.31666 11.5246 2.33333 14 2.33333C16.4754 2.33333 18.8493 3.31666 20.5997 5.067C22.35 6.81734 23.3333 9.19131 23.3333 11.6667Z" stroke="var(--stroke-0, #0F1D24)" stroke-width="2.33333" stroke-linecap="round" stroke-linejoin="round"/>
<path id="Vector_2" d="M14 15.1667C15.933 15.1667 17.5 13.5997 17.5 11.6667C17.5 9.73367 15.933 8.16667 14 8.16667C12.067 8.16667 10.5 9.73367 10.5 11.6667C10.5 13.5997 12.067 15.1667 14 15.1667Z" stroke="var(--stroke-0, #0F1D24)" stroke-width="2.33333" stroke-linecap="round" stroke-linejoin="round"/>
</g>
</svg>
