<svg preserveAspectRatio="none" width="100%" height="100%" overflow="visible" style="display: block;" viewBox="0 0 12.8333 12.8333" fill="none" xmlns="http://www.w3.org/2000/svg">
<path d="M7.48533 9.08133C7.60581 9.13666 7.74153 9.1493 7.87015 9.11717C7.99877 9.08504 8.11261 9.01006 8.19292 8.90458L8.4 8.63333C8.50867 8.48844 8.64959 8.37083 8.81158 8.28983C8.97358 8.20884 9.15221 8.16667 9.33333 8.16667H11.0833C11.3928 8.16667 11.6895 8.28958 11.9083 8.50838C12.1271 8.72717 12.25 9.02391 12.25 9.33333V11.0833C12.25 11.3928 12.1271 11.6895 11.9083 11.9083C11.6895 12.1271 11.3928 12.25 11.0833 12.25C8.29856 12.25 5.62784 11.1438 3.65871 9.17462C1.68958 7.20549 0.583333 4.53477 0.583333 1.75C0.583333 1.44058 0.70625 1.14383 0.925042 0.925042C1.14383 0.70625 1.44058 0.583333 1.75 0.583333H3.5C3.80942 0.583333 4.10617 0.70625 4.32496 0.925042C4.54375 1.14383 4.66667 1.44058 4.66667 1.75V3.5C4.66667 3.68112 4.6245 3.85975 4.5435 4.02175C4.4625 4.18375 4.3449 4.32466 4.2 4.43333L3.927 4.63808C3.81991 4.71985 3.74443 4.83617 3.69762 4.96729C3.68233 5.0984 3.69762 5.23622 3.75667 5.35733C4.5539 6.97659 5.86508 8.28613 7.48533 9.08133Z" stroke="#59AEE3" stroke-width="1.16667" stroke-linecap="round" stroke-linejoin="round"/>
</svg>
